<?xml version="1.0" encoding="utf-8"?>
<!-- Generator: Adobe Illustrator 19.0.0, SVG Export Plug-In . SVG Version: 6.00 Build 0)  -->
<svg version="1.2" baseProfile="tiny" id="Layer_1" xmlns="http://www.w3.org/2000/svg" xmlns:xlink="http://www.w3.org/1999/xlink"
	 x="0px" y="0px" viewBox="0 0 600 600" xml:space="preserve">
<g>
	<path fill="#FFFFFF" d="M374.5,175h-1.6L325,243.7h-49L225.6,175h-0.5c0,0-28,5-28,29s0,143.5,0,143.5s13.5,31,31,0l4.5-114.5
		l7.4-0.5L256.9,489c0,0,16.6,33,34.1,0l2-114h14v114c0,0,19,35,36.5,0l18-254.5L372,234v113.5c0,0,16.7,29.5,31.6,0.5V203
		C403.6,203,400,179,374.5,175z"/>
	<polygon fill="#FFFFFF" points="300,76.3 187.2,76.3 187.2,103.1 278.3,235.3 300,235.3 321.7,235.3 412.8,103.1 412.8,76.3 	"/>
</g>
</svg>
