<?xml version="1.0" encoding="utf-8"?>
<!-- Generator: Adobe Illustrator 19.0.1, SVG Export Plug-In . SVG Version: 6.00 Build 0)  -->
<svg version="1.2" baseProfile="tiny" id="Layer_1" xmlns="http://www.w3.org/2000/svg" xmlns:xlink="http://www.w3.org/1999/xlink"
	 x="0px" y="0px" viewBox="0 0 612 792" xml:space="preserve">
<path fill-rule="evenodd" fill="#FFFFFF" d="M62.7,23.7c-0.1,0.1-2.5,1.6-2.6,2c0,0.1,0.4,2.6,0.4,2.9c0.4,1.1,1.5,2.6,2.6,2.4
	c0.6-0.1,0.4-0.5,1.5,0.2c1.7,1,0.6,1.4,0.7,4c0,1.1,0.8,1.1,0.7,2c-0.2,1.8-2.9,2.7-1.5,5.3c0.6,1.1,2.8,1.2,2.4,3.8
	c-0.1,0.6-0.7,1.4-1.3,1.8c-0.2,0.2-0.8,0.1-1.1,0.4c-0.6,0.7-0.3,1.4-0.9,1.8c-0.4,0.2-1.2-0.1-1.5,0c-0.8,0.1-2.2,0.8-2.6,1.3
	c-0.2,0.3,0.2,0.8,0,1.3c-0.1,0.2-1,1.7-0.9,1.5c-0.6,0.5-3.4,0.9-4,2c-0.7,1.3,0,3.1-0.9,3.5c-0.5,0.3-1.4-0.6-2.4-0.7
	c-1.3-0.1-4.3,0.7-5.7,1.8c-1.1,0.9-0.4,1.7-1.8,2c-1.4,0.3-2-1.5-3.3-2c-0.7-0.2-3.7-0.6-4.9-0.2c-1.2,0.4-0.8,1.7-2,2.2
	c-0.9,0.4-1.4-0.3-2,0c-1,0.5-0.5,1.9-2,1.8c-0.9-0.1-0.9-1.4-1.1-1.5c-0.8-0.6-3.3-0.3-4-2.4c-0.1-0.3,0.3-0.9,0.2-1.8
	c-0.1-1.1-0.9-1.9,0-2.6c-0.2,0.2,1.5-0.3,1.5-0.4c0.1-0.5-1.4-2.2-1.8-2.6c-1.1-1.2-3.1-2.8-3.8-2.9c-0.2,0-3.3,2.1-3.8,0.7
	c-0.2-0.7,4-2.5,4.2-3.3c0.6-2.1-1.6-4.8-2.6-5.1c-1.3-0.4-3.2,0.7-3.8-0.2c-0.6-1.1,1.8-2.6,1.8-3.8c-0.1-1.5-2.3-1.9-2.4-2.6
	c-0.2-1.2,2.2-2,2.6-4.2c0.2-0.8-0.2-1.3,0-1.8c0.5-1.4,1.8-1.8,2-2.6c0.4-1.8-1.2-3.1-0.4-4.4c0.4-0.7,1.3-0.1,2.6-0.7
	c1.4-0.6,3.6-2.4,4-3.8c0.1-0.3-0.2-1.3,0-1.5c1.2-1.1,2.7,0.1,4.2-0.4c2.2-0.8,2-3.6,3.3-3.8c0.6-0.1,1.5,1.6,2.6,1.8
	c1.1,0.2,3.5-0.8,4.6-1.3c1.6-0.8,1.7-1.4,3.3-0.2c0.4,0.3,0.8,0.9,1.3,1.1c1.3,0.5,3.1-0.2,4.4,0c0.8,0.1,1.5,0.9,2,0.9
	c1,0.1,1.4-1.3,2.4-0.4c1,0.8-2.2,2.3,0.7,1.8c1.2-0.2,2.7-1.6,5.1-1.5c2.7,0.1,4.4,1.9,4.9,4.2c0.3,1.5-0.2,3-1.1,4.4
	C62.6,23.6,62.7,23.7,62.7,23.7z"/>
</svg>
