<?xml version="1.0" encoding="utf-8"?>
<!-- Generator: Adobe Illustrator 19.0.1, SVG Export Plug-In . SVG Version: 6.00 Build 0)  -->
<svg version="1.2" baseProfile="tiny" xmlns="http://www.w3.org/2000/svg" xmlns:xlink="http://www.w3.org/1999/xlink" x="0px"
	 y="0px" viewBox="0 0 612 792" xml:space="preserve">
<g id="Layer_2">
	<path fill="#FFFFFF" d="M238.5,267.5h-71c0-81.4,65.9-147.5,147-147.5v71C272.6,191,238.5,225.3,238.5,267.5z"/>
	<rect x="167.5" y="266.6" fill="#FFFFFF" width="71" height="59.8"/>
	<path fill="#FFFFFF" d="M461,267.5h-71c0-42.2-34.1-76.5-76-76.5v-71C395.1,120,461,186.1,461,267.5z"/>
	<rect x="390" y="266.6" fill="#FFFFFF" width="71" height="59.8"/>
</g>
<g id="Layer_3">
	<g>
		<path fill="#FFFFFF" d="M116.5,322.5v263c0,25.1,19,45.5,42.5,45.5h311.1c23.5,0,42.5-20.4,42.5-45.5v-263H116.5z M332,481.3v82.2
			h-35.5v-83c-13.1-6.7-22-20.3-22-36c0-22.4,18.1-40.5,40.5-40.5s40.5,18.1,40.5,40.5C355.5,460.8,345.9,474.8,332,481.3z"/>
	</g>
	<g>
	</g>
	<g>
	</g>
	<g>
	</g>
	<g>
	</g>
	<g>
	</g>
	<g>
	</g>
</g>
</svg>
