<?xml version="1.0" encoding="utf-8"?>
<!-- Generator: Adobe Illustrator 19.0.1, SVG Export Plug-In . SVG Version: 6.00 Build 0)  -->
<svg version="1.1" baseProfile="tiny" id="Layer_1" xmlns="http://www.w3.org/2000/svg" xmlns:xlink="http://www.w3.org/1999/xlink"
	 x="0px" y="0px" viewBox="0 0 612 792" xml:space="preserve">
<path fill="#FFFFFF" d="M47.118,79.987c-19.295,0-34.993-15.698-34.993-34.993C12.125,25.698,27.823,10,47.118,10
	c19.295,0,34.993,15.698,34.993,34.993C82.112,64.289,66.414,79.987,47.118,79.987z M47.118,20.638
	c-13.429,0-24.355,10.926-24.355,24.355s10.926,24.355,24.355,24.355s24.355-10.926,24.355-24.355S60.548,20.638,47.118,20.638z"/>
<path fill="#FFFFFF" d="M65.506,73.259c3.603,3.603,7.207,7.207,10.81,10.81c5.749,5.749,11.498,11.498,17.247,17.247
	c1.327,1.327,2.654,2.654,3.981,3.981c2.67,2.67,7.562,2.869,10.196,0c2.642-2.878,2.85-7.346,0-10.196
	c-3.603-3.603-7.207-7.207-10.81-10.81c-5.749-5.749-11.498-11.498-17.247-17.247c-1.327-1.327-2.654-2.654-3.981-3.981
	c-2.67-2.67-7.562-2.869-10.196,0C62.864,65.942,62.656,70.41,65.506,73.259L65.506,73.259z"/>
</svg>
